<?xml version="1.0" encoding="UTF-8"?>
<svg id="svg5" xmlns="http://www.w3.org/2000/svg" viewBox="0 0 32 32">
  <defs>
    <style>
      .cls-1 {
        fill: #000;
        stroke-width: 0px;
      }
    </style>
  </defs>
  <path class="cls-1" d="M28.48,17.77c-.27-.07-.53,0-.77.17-.87.73-1.86,1.33-2.96,1.73-1.03.4-2.16.6-3.36.6-2.7,0-5.16-1.1-6.92-2.86-1.76-1.76-2.86-4.23-2.86-6.92,0-1.13.2-2.23.53-3.23.37-1.07.9-2.03,1.6-2.86.3-.37.23-.9-.13-1.2-.23-.17-.5-.23-.77-.17-2.83.77-5.29,2.46-7.06,4.73-1.7,2.23-2.73,4.99-2.73,8.02,0,3.63,1.46,6.92,3.86,9.32,2.4,2.4,5.69,3.86,9.32,3.86,3.06,0,5.89-1.07,8.16-2.83,2.3-1.8,3.96-4.36,4.66-7.29.17-.5-.1-.97-.57-1.07ZM23.39,24.73c-1.93,1.53-4.39,2.46-7.09,2.46-3.16,0-6.02-1.3-8.09-3.36-2.06-2.06-3.36-4.93-3.36-8.09,0-2.63.87-5.03,2.36-6.96,1.03-1.33,2.33-2.43,3.83-3.2-.17.37-.33.73-.47,1.13-.43,1.2-.63,2.46-.63,3.79,0,3.16,1.3,6.06,3.36,8.12,2.06,2.06,4.96,3.36,8.12,3.36,1.4,0,2.73-.23,3.96-.7.43-.17.87-.33,1.26-.53-.8,1.53-1.9,2.9-3.26,3.96Z"/>
</svg>