<?xml version="1.0" encoding="UTF-8"?>
<svg id="svg5" xmlns="http://www.w3.org/2000/svg" viewBox="0 0 32 32">
  <defs>
    <style>
      .cls-1 {
        fill: #000;
        stroke-width: 0px;
      }
    </style>
  </defs>
  <path class="cls-1" d="M24.07,16.98c-.26,0-.51-.1-.69-.29-.18-.18-.27-.43-.27-.68,0-.26.11-.5.29-.67l2.03-2.03c1.88-1.9,1.87-4.92,0-6.77-.9-.89-2.08-1.38-3.35-1.38s-2.48.5-3.38,1.41l-2.02,2.02c-.21.2-.45.3-.7.3-.26,0-.51-.1-.69-.29-.18-.18-.27-.43-.27-.68,0-.26.11-.5.29-.67l2.03-2.03c1.25-1.22,2.91-1.9,4.67-1.9s3.41.68,4.67,1.9c1.28,1.25,1.99,2.92,2.01,4.7.02,1.78-.66,3.47-1.9,4.74l-2.02,2.02c-.21.2-.44.3-.69.3h0Z"/>
  <path class="cls-1" d="M9.99,28.69c-1.75,0-3.41-.68-4.67-1.9-1.28-1.25-1.99-2.92-2.01-4.7-.02-1.78.66-3.47,1.9-4.74l2.02-2.02c.21-.2.44-.3.69-.3.26,0,.51.1.69.29.37.38.36.99-.02,1.36l-2.03,2.03c-1.83,1.85-1.83,4.85,0,6.7.9.91,2.1,1.41,3.38,1.41s2.45-.49,3.35-1.38l2.02-2.02c.18-.17.41-.26.66-.26s.49.1.67.27c.38.37.39.98.02,1.36l-2.02,2.02c-1.25,1.22-2.91,1.9-4.67,1.9Z"/>
  <path class="cls-1" d="M11.96,21.01c-.26,0-.5-.1-.68-.28s-.29-.43-.29-.69c0-.26.1-.5.28-.68l8.09-8.09c.21-.2.44-.3.69-.3.26,0,.51.1.69.29.37.38.36.99-.02,1.36l-8.1,8.1c-.18.18-.42.28-.68.28Z"/>
</svg>