<?xml version="1.0" encoding="UTF-8"?>
<svg id="svg5" xmlns="http://www.w3.org/2000/svg" viewBox="0 0 32 32">
  <defs>
    <style>
      .cls-1 {
        fill: #000;
        stroke-width: 0px;
      }
    </style>
  </defs>
  <path class="cls-1" d="M15.98,6.96c.42,0,.76-.34.76-.76v-2.44c0-.42-.34-.76-.76-.76s-.76.34-.76.76v2.44c0,.42.34.76.76.76Z"/>
  <path class="cls-1" d="M15.98,24.99c-.42,0-.76.34-.76.76v2.44c0,.42.34.76.76.76s.76-.34.76-.76v-2.44c0-.42-.34-.76-.76-.76Z"/>
  <path class="cls-1" d="M28.19,15.22h-2.44c-.42,0-.76.34-.76.76s.34.76.76.76h2.44c.42,0,.76-.34.76-.76s-.34-.76-.76-.76Z"/>
  <path class="cls-1" d="M6.96,15.98c0-.42-.34-.76-.76-.76h-2.44c-.42,0-.76.34-.76.76s.34.76.76.76h2.44c.42,0,.76-.34.76-.76Z"/>
  <path class="cls-1" d="M23.43,9.6l1.73-1.73c.3-.3.3-.78,0-1.08-.3-.3-.78-.3-1.08,0l-1.73,1.73c-.3.3-.3.78,0,1.08.3.3.78.3,1.08,0Z"/>
  <path class="cls-1" d="M8.53,22.35l-1.73,1.73c-.3.3-.3.78,0,1.08.3.3.78.3,1.08,0l1.73-1.73c.3-.3.3-.78,0-1.08-.3-.3-.78-.3-1.08,0Z"/>
  <path class="cls-1" d="M23.43,22.35c-.3-.3-.78-.3-1.08,0s-.3.78,0,1.08l1.73,1.73c.3.3.78.3,1.08,0,.3-.3.3-.78,0-1.08l-1.73-1.73Z"/>
  <path class="cls-1" d="M8.53,9.6c.3.3.78.3,1.08,0,.3-.3.3-.78,0-1.08l-1.73-1.73c-.3-.3-.78-.3-1.08,0-.3.3-.3.78,0,1.08l1.73,1.73Z"/>
  <path class="cls-1" d="M15.98,9.52c-3.56,0-6.46,2.9-6.46,6.46s2.9,6.46,6.46,6.46,6.46-2.9,6.46-6.46-2.9-6.46-6.46-6.46ZM15.98,20.92c-2.72,0-4.94-2.22-4.94-4.94s2.22-4.94,4.94-4.94,4.94,2.22,4.94,4.94-2.22,4.94-4.94,4.94Z"/>
</svg>