<?xml version="1.0" encoding="UTF-8"?>
<svg id="svg5" xmlns="http://www.w3.org/2000/svg" viewBox="0 0 32 32">
  <defs>
    <style>
      .cls-1 {
        fill: #000;
        stroke-width: 0px;
      }
    </style>
  </defs>
  <path class="cls-1" d="M16,28.65c-6.98,0-12.65-5.68-12.65-12.65S9.02,3.35,16,3.35s12.65,5.67,12.65,12.65-5.68,12.65-12.65,12.65ZM9.94,25.6c1.51.95,3.24,1.54,5.02,1.7l.38.03v-2.38h-6.43l1.02.65ZM16.65,27.33l.38-.03c5.88-.53,10.31-5.39,10.31-11.3s-4.43-10.77-10.31-11.3l-.38-.03v22.67ZM5.97,21.32c.42.8.94,1.55,1.54,2.22l.1.12h7.74v-2.85H5.69l.27.51ZM4.7,17.03c.07.75.21,1.5.43,2.22l.07.25h10.15v-2.85H4.66l.03.38ZM5.12,12.75c-.21.72-.36,1.47-.43,2.22l-.03.38h10.68v-2.85H5.2l-.07.25ZM7.51,8.46c-.6.68-1.12,1.43-1.55,2.23l-.27.51h9.65v-2.86h-7.73l-.1.12ZM14.97,4.7c-1.78.16-3.52.75-5.02,1.7l-1.02.65h6.43v-2.38l-.38.03Z"/>
</svg>