<?xml version="1.0" encoding="UTF-8"?>
<svg id="svg5" xmlns="http://www.w3.org/2000/svg" viewBox="0 0 32 32">
  <defs>
    <style>
      .cls-1 {
        fill: #000;
        stroke-width: 0px;
      }
    </style>
  </defs>
  <path class="cls-1" d="M6.15,21.67c-.13-.13-.3-.21-.48-.2-.77.03-1.41-.59-1.41-1.36v-10.85c0-.75.61-1.36,1.36-1.36h16.27c.75,0,1.36.61,1.36,1.36v6.1c0,.37.31.68.68.68s.68-.31.68-.68v-6.1c0-1.5-1.21-2.71-2.71-2.71H5.62c-1.5,0-2.71,1.21-2.71,2.71v10.85c0,1.4,1.06,2.55,2.47,2.7"/>
  <path class="cls-1" d="M4.94,22.82h6.78c.37,0,.68-.31.68-.68s-.31-.68-.68-.68h-6.78c-.37,0-.68.31-.68.68"/>
  <path class="cls-1" d="M20.32,17.6l-2.4,1.51c-.16.08-.29.2-.4.33h-2.18c-.88,0-1.59.71-1.59,1.57v2.29c0,.86.71,1.57,1.59,1.57h2.18c.11.13.24.24.35.3l2.48,1.56c.22.12.47.18.71.18.38,0,.77-.15,1.06-.45.29-.28.43-.71.43-1.11v-6.36c0-.45-.16-.91-.51-1.21-.49-.41-1.14-.49-1.74-.16h.01ZM17.14,23.5h-1.8c-.13,0-.24-.09-.24-.21v-2.29c0-.12.11-.21.24-.21h1.8v2.71ZM21.21,25.61s0,.07-.06.11c-.03.01-.08.04-.11.03l-2.49-1.57-.05-.03-.06-3.63.02-.07,2.54-1.61s.05-.02.07-.02c.03,0,.06.01.07.02.06.03.06.09.06.11v6.67h0Z"/>
  <path class="cls-1" d="M26.92,17.53c-.28-.25-.71-.22-.96.05s-.22.71.05.96c1.06.95,1.68,2.31,1.68,3.73s-.61,2.79-1.68,3.74c-.28.25-.31.68-.05.96.14.15.32.23.51.23.16,0,.32-.05.45-.17,1.36-1.21,2.14-2.94,2.14-4.75s-.78-3.54-2.14-4.75h0Z"/>
  <path class="cls-1" d="M24.88,18.86c-.29-.24-.72-.2-.96.09s-.2.72.09.96c.71.59,1.11,1.45,1.11,2.37s-.41,1.79-1.12,2.38c-.28.24-.33.66-.09.96.14.16.33.24.52.24.15,0,.31-.05.43-.16,1.02-.85,1.61-2.09,1.61-3.42s-.58-2.57-1.6-3.42Z"/>
  <path class="cls-1" d="M19.03,11.3h-10.62c-.41,0-.75.31-.75.68s.34.68.75.68h10.62c.41,0,.75-.31.75-.68s-.34-.68-.75-.68Z"/>
  <path class="cls-1" d="M19.03,14.01h-10.62c-.41,0-.75.31-.75.68s.34.68.75.68h10.62c.41,0,.75-.31.75-.68s-.34-.68-.75-.68Z"/>
  <path class="cls-1" d="M16.46,16.72h-8.14c-.37,0-.68.31-.68.68s.31.68.68.68h8.14c.37,0,.68-.31.68-.68s-.31-.68-.68-.68Z"/>
</svg>